<?xml version="1.0" encoding="utf-8"?>

<!-- Uploaded to: SVG Repo, www.svgrepo.com, Generator: SVG Repo Mixer Tools -->
<svg version="1.1" id="Icons" xmlns="http://www.w3.org/2000/svg" xmlns:xlink="http://www.w3.org/1999/xlink" 
	 viewBox="0 0 32 32" xml:space="preserve">
<style type="text/css">
	.st0{fill:none;stroke:#000000;stroke-width:2;stroke-linecap:round;stroke-linejoin:round;stroke-miterlimit:10;}
	.st1{fill:none;stroke:#000000;stroke-width:2;stroke-linejoin:round;stroke-miterlimit:10;}
</style>
<path class="st0" d="M23,23.77c3.44-0.85,6-4.01,6-7.77c0-4.42-3.53-8-7.88-8c-3.75,0-6.88,2.66-7.67,6.22h-0.64
	c-2.65,0-4.81,2.2-4.81,4.89S10.17,24,12.81,24"/>
<line class="st0" x1="18" y1="23" x2="18" y2="25"/>
<line class="st0" x1="17" y1="24" x2="19" y2="24"/>
<line class="st0" x1="14" y1="27" x2="14" y2="29"/>
<line class="st0" x1="13" y1="28" x2="15" y2="28"/>
<line class="st0" x1="22" y1="27" x2="22" y2="29"/>
<line class="st0" x1="21" y1="28" x2="23" y2="28"/>
<path class="st0" d="M16.44,9.58C15.69,6.94,13.24,5,10.34,5C9.79,5,9.27,5.07,8.77,5.2c1.43,0.48,2.47,1.81,2.47,3.39
	c0,1.98-1.62,3.59-3.62,3.59c-1.6,0-2.93-1.03-3.42-2.45C4.08,10.23,4,10.75,4,11.29C4,13.82,5.51,16,7.68,17"/>
</svg>