<?xml version="1.0" encoding="utf-8"?>

<!-- Uploaded to: SVG Repo, www.svgrepo.com, Generator: SVG Repo Mixer Tools -->
<svg version="1.1" id="Icons" xmlns="http://www.w3.org/2000/svg" xmlns:xlink="http://www.w3.org/1999/xlink" 
	 viewBox="0 0 32 32" xml:space="preserve">
<style type="text/css">
	.st0{fill:none;stroke:#000000;stroke-width:2;stroke-linecap:round;stroke-linejoin:round;stroke-miterlimit:10;}
	.st1{fill:none;stroke:#000000;stroke-width:2;stroke-linejoin:round;stroke-miterlimit:10;}
</style>
<path class="st0" d="M23,23.77c3.44-0.85,6-4.01,6-7.77c0-4.42-3.53-8-7.88-8c-3.75,0-6.88,2.66-7.67,6.22h-0.64
	c-2.65,0-4.81,2.2-4.81,4.89S10.17,24,12.81,24"/>
<path class="st0" d="M9.79,15.32c-1.12-0.72-1.86-1.98-1.86-3.41c0-2.24,1.82-4.06,4.06-4.06c1.64,0,3.05,0.97,3.69,2.37"/>
<line class="st0" x1="12" y1="5" x2="12" y2="3"/>
<line class="st0" x1="7.05" y1="7.05" x2="5.64" y2="5.64"/>
<line class="st0" x1="5" y1="12" x2="3" y2="12"/>
<line class="st0" x1="18" y1="23" x2="18" y2="25"/>
<line class="st0" x1="17" y1="24" x2="19" y2="24"/>
<line class="st0" x1="14" y1="27" x2="14" y2="29"/>
<line class="st0" x1="13" y1="28" x2="15" y2="28"/>
<line class="st0" x1="22" y1="27" x2="22" y2="29"/>
<line class="st0" x1="21" y1="28" x2="23" y2="28"/>
</svg>