<?xml version="1.0" encoding="utf-8"?>

<!-- Uploaded to: SVG Repo, www.svgrepo.com, Generator: SVG Repo Mixer Tools -->
<svg version="1.1" id="Icons" xmlns="http://www.w3.org/2000/svg" xmlns:xlink="http://www.w3.org/1999/xlink" 
	 viewBox="0 0 32 32" xml:space="preserve">
<style type="text/css">
	.st0{fill:none;stroke:#000000;stroke-width:2;stroke-linecap:round;stroke-linejoin:round;stroke-miterlimit:10;}
	.st1{fill:none;stroke:#000000;stroke-width:2;stroke-linejoin:round;stroke-miterlimit:10;}
</style>
<path class="st0" d="M25.3,19.43C26.97,17.8,28,15.52,28,13c0-4.97-4.03-9-9-9c-4.28,0-7.86,2.99-8.77,7H9.5C6.48,11,4,13.47,4,16.5
	c0,1.75,0.82,3.31,2.1,4.32"/>
<line class="st0" x1="16" y1="17.79" x2="16" y2="22.04"/>
<polyline class="st0" points="17.7,16.09 16,17.79 14.3,16.09 "/>
<line class="st0" x1="12.32" y1="19.91" x2="16" y2="22.04"/>
<polyline class="st0" points="11.7,17.59 12.32,19.91 10,20.53 "/>
<line class="st0" x1="12.32" y1="24.16" x2="16" y2="22.04"/>
<polyline class="st0" points="10,23.54 12.32,24.16 11.7,26.48 "/>
<line class="st0" x1="16" y1="26.28" x2="16" y2="22.04"/>
<polyline class="st0" points="14.3,27.98 16,26.28 17.7,27.98 "/>
<line class="st0" x1="19.68" y1="24.16" x2="16" y2="22.04"/>
<polyline class="st0" points="20.3,26.48 19.68,24.16 22,23.54 "/>
<line class="st0" x1="19.68" y1="19.91" x2="16" y2="22.04"/>
<polyline class="st0" points="22,20.53 19.68,19.91 20.3,17.59 "/>
</svg>