<?xml version="1.0" encoding="utf-8"?>

<!-- Uploaded to: SVG Repo, www.svgrepo.com, Generator: SVG Repo Mixer Tools -->
<svg version="1.1" id="Icons" xmlns="http://www.w3.org/2000/svg" xmlns:xlink="http://www.w3.org/1999/xlink" 
	 viewBox="0 0 32 32" xml:space="preserve">
<style type="text/css">
	.st0{fill:none;stroke:#000000;stroke-width:2;stroke-linecap:round;stroke-linejoin:round;stroke-miterlimit:10;}
	.st1{fill:none;stroke:#000000;stroke-width:2;stroke-linejoin:round;stroke-miterlimit:10;}
</style>
<line class="st0" x1="4" y1="21" x2="26" y2="21"/>
<path class="st0" d="M25.69,18c1.43-1.59,2.31-3.69,2.31-6c0-4.97-4.03-9-9-9c-4.28,0-7.86,2.99-8.77,7H9.5C6.48,10,4,12.47,4,15.5
	c0,0.9,0.23,1.75,0.62,2.5"/>
<path class="st0" d="M26,21c1.66,0,3,1.34,3,3s-1.34,3-3,3s-3-1.34-3-3"/>
<path class="st0" d="M18,25c1.1,0,2,0.9,2,2s-0.9,2-2,2s-2-0.9-2-2"/>
<line class="st0" x1="8" y1="25" x2="8" y2="25"/>
<line class="st0" x1="11" y1="25" x2="18" y2="25"/>
</svg>